<svg xmlns="http://www.w3.org/2000/svg" version="1.1" xmlns:xlink="http://www.w3.org/1999/xlink" xmlns:svgjs="http://svgjs.dev/svgjs" viewBox="0 0 1422 800"><g stroke-width="1" stroke="#22ea13" fill="none" stroke-linecap="round"><line x1="98" y1="0" x2="0" y2="98" opacity="1.00"></line><line x1="98" y1="0" x2="196" y2="98" opacity="1.00"></line><line x1="294" y1="0" x2="196" y2="98" opacity="1.00"></line><line x1="294" y1="0" x2="392" y2="98" opacity="1.00"></line><line x1="490" y1="0" x2="392" y2="98" opacity="1.00"></line><line x1="588" y1="0" x2="490" y2="98" opacity="1.00"></line><line x1="686" y1="0" x2="588" y2="98" opacity="1.00"></line><line x1="784" y1="0" x2="686" y2="98" opacity="1.00"></line><line x1="882" y1="0" x2="784" y2="98" opacity="1.00"></line><line x1="980" y1="0" x2="882" y2="98" opacity="1.00"></line><line x1="1078" y1="0" x2="980" y2="98" opacity="1.00"></line><line x1="1176" y1="0" x2="1078" y2="98" opacity="1.00"></line><line x1="1274" y1="0" x2="1176" y2="98" opacity="1.00"></line><line x1="1372" y1="0" x2="1274" y2="98" opacity="1.00"></line><line x1="1372" y1="0" x2="1470" y2="98" opacity="1.00"></line><line x1="98" y1="98" x2="0" y2="196" opacity="0.88"></line><line x1="196" y1="98" x2="98" y2="196" opacity="0.88"></line><line x1="196" y1="98" x2="294" y2="196" opacity="0.88"></line><line x1="294" y1="98" x2="392" y2="196" opacity="0.88"></line><line x1="490" y1="98" x2="392" y2="196" opacity="0.88"></line><line x1="588" y1="98" x2="490" y2="196" opacity="0.88"></line><line x1="588" y1="98" x2="686" y2="196" opacity="0.88"></line><line x1="784" y1="98" x2="686" y2="196" opacity="0.88"></line><line x1="784" y1="98" x2="882" y2="196" opacity="0.88"></line><line x1="980" y1="98" x2="882" y2="196" opacity="0.88"></line><line x1="1078" y1="98" x2="980" y2="196" opacity="0.88"></line><line x1="1176" y1="98" x2="1078" y2="196" opacity="0.88"></line><line x1="1274" y1="98" x2="1176" y2="196" opacity="0.88"></line><line x1="1372" y1="98" x2="1274" y2="196" opacity="0.88"></line><line x1="1372" y1="98" x2="1470" y2="196" opacity="0.88"></line><line x1="98" y1="196" x2="0" y2="294" opacity="0.77"></line><line x1="98" y1="196" x2="196" y2="294" opacity="0.77"></line><line x1="196" y1="196" x2="294" y2="294" opacity="0.77"></line><line x1="392" y1="196" x2="294" y2="294" opacity="0.77"></line><line x1="490" y1="196" x2="392" y2="294" opacity="0.77"></line><line x1="588" y1="196" x2="490" y2="294" opacity="0.77"></line><line x1="588" y1="196" x2="686" y2="294" opacity="0.77"></line><line x1="784" y1="196" x2="686" y2="294" opacity="0.77"></line><line x1="784" y1="196" x2="882" y2="294" opacity="0.77"></line><line x1="980" y1="196" x2="882" y2="294" opacity="0.77"></line><line x1="1078" y1="196" x2="980" y2="294" opacity="0.77"></line><line x1="1176" y1="196" x2="1078" y2="294" opacity="0.77"></line><line x1="1176" y1="196" x2="1274" y2="294" opacity="0.77"></line><line x1="1372" y1="196" x2="1274" y2="294" opacity="0.77"></line><line x1="1470" y1="196" x2="1372" y2="294" opacity="0.77"></line><line x1="0" y1="294" x2="98" y2="392" opacity="0.65"></line><line x1="196" y1="294" x2="98" y2="392" opacity="0.65"></line><line x1="294" y1="294" x2="196" y2="392" opacity="0.65"></line><line x1="294" y1="294" x2="392" y2="392" opacity="0.65"></line><line x1="490" y1="294" x2="392" y2="392" opacity="0.65"></line><line x1="588" y1="294" x2="490" y2="392" opacity="0.65"></line><line x1="686" y1="294" x2="588" y2="392" opacity="0.65"></line><line x1="784" y1="294" x2="686" y2="392" opacity="0.65"></line><line x1="784" y1="294" x2="882" y2="392" opacity="0.65"></line><line x1="980" y1="294" x2="882" y2="392" opacity="0.65"></line><line x1="980" y1="294" x2="1078" y2="392" opacity="0.65"></line><line x1="1176" y1="294" x2="1078" y2="392" opacity="0.65"></line><line x1="1274" y1="294" x2="1176" y2="392" opacity="0.65"></line><line x1="1372" y1="294" x2="1274" y2="392" opacity="0.65"></line><line x1="1372" y1="294" x2="1470" y2="392" opacity="0.65"></line><line x1="0" y1="392" x2="98" y2="490" opacity="0.53"></line><line x1="98" y1="392" x2="196" y2="490" opacity="0.53"></line><line x1="294" y1="392" x2="196" y2="490" opacity="0.53"></line><line x1="392" y1="392" x2="294" y2="490" opacity="0.53"></line><line x1="490" y1="392" x2="392" y2="490" opacity="0.53"></line><line x1="588" y1="392" x2="490" y2="490" opacity="0.53"></line><line x1="686" y1="392" x2="588" y2="490" opacity="0.53"></line><line x1="686" y1="392" x2="784" y2="490" opacity="0.53"></line><line x1="882" y1="392" x2="784" y2="490" opacity="0.53"></line><line x1="882" y1="392" x2="980" y2="490" opacity="0.53"></line><line x1="1078" y1="392" x2="980" y2="490" opacity="0.53"></line><line x1="1176" y1="392" x2="1078" y2="490" opacity="0.53"></line><line x1="1274" y1="392" x2="1176" y2="490" opacity="0.53"></line><line x1="1372" y1="392" x2="1274" y2="490" opacity="0.53"></line><line x1="1470" y1="392" x2="1372" y2="490" opacity="0.53"></line><line x1="98" y1="490" x2="0" y2="588" opacity="0.42"></line><line x1="98" y1="490" x2="196" y2="588" opacity="0.42"></line><line x1="294" y1="490" x2="196" y2="588" opacity="0.42"></line><line x1="294" y1="490" x2="392" y2="588" opacity="0.42"></line><line x1="490" y1="490" x2="392" y2="588" opacity="0.42"></line><line x1="588" y1="490" x2="490" y2="588" opacity="0.42"></line><line x1="588" y1="490" x2="686" y2="588" opacity="0.42"></line><line x1="784" y1="490" x2="686" y2="588" opacity="0.42"></line><line x1="882" y1="490" x2="784" y2="588" opacity="0.42"></line><line x1="980" y1="490" x2="882" y2="588" opacity="0.42"></line><line x1="1078" y1="490" x2="980" y2="588" opacity="0.42"></line><line x1="1078" y1="490" x2="1176" y2="588" opacity="0.42"></line><line x1="1274" y1="490" x2="1176" y2="588" opacity="0.42"></line><line x1="1372" y1="490" x2="1274" y2="588" opacity="0.42"></line><line x1="1372" y1="490" x2="1470" y2="588" opacity="0.42"></line><line x1="98" y1="588" x2="0" y2="686" opacity="0.30"></line><line x1="196" y1="588" x2="98" y2="686" opacity="0.30"></line><line x1="294" y1="588" x2="196" y2="686" opacity="0.30"></line><line x1="392" y1="588" x2="294" y2="686" opacity="0.30"></line><line x1="392" y1="588" x2="490" y2="686" opacity="0.30"></line><line x1="490" y1="588" x2="588" y2="686" opacity="0.30"></line><line x1="686" y1="588" x2="588" y2="686" opacity="0.30"></line><line x1="686" y1="588" x2="784" y2="686" opacity="0.30"></line><line x1="882" y1="588" x2="784" y2="686" opacity="0.30"></line><line x1="980" y1="588" x2="882" y2="686" opacity="0.30"></line><line x1="1078" y1="588" x2="980" y2="686" opacity="0.30"></line><line x1="1176" y1="588" x2="1078" y2="686" opacity="0.30"></line><line x1="1274" y1="588" x2="1176" y2="686" opacity="0.30"></line><line x1="1372" y1="588" x2="1274" y2="686" opacity="0.30"></line><line x1="1470" y1="588" x2="1372" y2="686" opacity="0.30"></line><line x1="98" y1="686" x2="0" y2="784" opacity="0.19"></line><line x1="98" y1="686" x2="196" y2="784" opacity="0.19"></line><line x1="294" y1="686" x2="196" y2="784" opacity="0.19"></line><line x1="392" y1="686" x2="294" y2="784" opacity="0.19"></line><line x1="392" y1="686" x2="490" y2="784" opacity="0.19"></line><line x1="588" y1="686" x2="490" y2="784" opacity="0.19"></line><line x1="588" y1="686" x2="686" y2="784" opacity="0.19"></line><line x1="784" y1="686" x2="686" y2="784" opacity="0.19"></line><line x1="784" y1="686" x2="882" y2="784" opacity="0.19"></line><line x1="980" y1="686" x2="882" y2="784" opacity="0.19"></line><line x1="1078" y1="686" x2="980" y2="784" opacity="0.19"></line><line x1="1078" y1="686" x2="1176" y2="784" opacity="0.19"></line><line x1="1274" y1="686" x2="1176" y2="784" opacity="0.19"></line><line x1="1372" y1="686" x2="1274" y2="784" opacity="0.19"></line><line x1="1470" y1="686" x2="1372" y2="784" opacity="0.19"></line><line x1="98" y1="784" x2="0" y2="882" opacity="0.07"></line><line x1="196" y1="784" x2="98" y2="882" opacity="0.07"></line><line x1="294" y1="784" x2="196" y2="882" opacity="0.07"></line><line x1="294" y1="784" x2="392" y2="882" opacity="0.07"></line><line x1="490" y1="784" x2="392" y2="882" opacity="0.07"></line><line x1="490" y1="784" x2="588" y2="882" opacity="0.07"></line><line x1="686" y1="784" x2="588" y2="882" opacity="0.07"></line><line x1="784" y1="784" x2="686" y2="882" opacity="0.07"></line><line x1="882" y1="784" x2="784" y2="882" opacity="0.07"></line><line x1="980" y1="784" x2="882" y2="882" opacity="0.07"></line><line x1="1078" y1="784" x2="980" y2="882" opacity="0.07"></line><line x1="1078" y1="784" x2="1176" y2="882" opacity="0.07"></line><line x1="1274" y1="784" x2="1176" y2="882" opacity="0.07"></line><line x1="1372" y1="784" x2="1274" y2="882" opacity="0.07"></line><line x1="1470" y1="784" x2="1372" y2="882" opacity="0.07"></line></g></svg>